# xmcd
#
# Track frame offsets: 
#        150
#        15646
#        39025
#        53743
#        71279
#        89858
#        100652
#        119526
#        135270
#        154282
#        172147
#        191794
#
# Disc length: 2739 seconds
#
# Revision: 0
# Processed by: cddbd v1.5.2PL0 Copyright (c) Steve Scherf et al.
# Submitted via: ExactAudioCopyFreeDBPlugin 1.0
#
DISCID=9d0ab10c
DTITLE=Chicago Bob Nelson - Back To Bogalusa
DYEAR=1995
DGENRE=Blues
TTITLE0=Leave The Young Girls Alone
TTITLE1=Came Home This Morning
TTITLE2=When I Had (I Didn't Need)
TTITLE3=Going Home
TTITLE4=Sugar Mama
TTITLE5=Swamp Jump
TTITLE6=Wilma Jean
TTITLE7=Everybody Needs Somebody
TTITLE8=Been Down So Long
TTITLE9=Short Hair Woman
TTITLE10=Back To Bogalusa
TTITLE11=It's A Shame
EXTD=
EXTT0=
EXTT1=
EXTT2=
EXTT3=
EXTT4=
EXTT5=
EXTT6=
EXTT7=
EXTT8=
EXTT9=
EXTT10=
EXTT11=
PLAYORDER=
